PathFileType	4	(X/Y/Z)	/Users/itak/Documents/Research/Walk-IL/dataset/trc/00526_00183.trc
DataRate	CameraRate	NumFrames	NumMarkers	Units	OrigDataRate	OrigDataStartFrame	OrigNumFrames
100.000000	100.000000	4	53	mm	100.000000	174	466
Frame#	Time	RPSI			LPSI			L3			STRN			T10			C7			CLAV			RBAK			LBAK			LSHO			LUPA			LAEL			LAOL			LWTS			LFRA			LIFD			LHPS			LHTS			RSHO			RUPA			RAEL			RAOL			RWTS			RWPS			RFRA			RIFD			RHTS			RHPS			RBHD			LFHD			RFHD			LBHD			LHIP			RHIP			RASI			LASI			LKNE			LTHI			LANK			LTIP			LTOE			LMT1			LMT5			LHEE			RKNE			RTHI			RANK			RTIP			RTOE			RMT1			RMT5			RHEE			LWPS			
		X1	Y1	Z1	X2	Y2	Z2	X3	Y3	Z3	X4	Y4	Z4	X5	Y5	Z5	X6	Y6	Z6	X7	Y7	Z7	X8	Y8	Z8	X9	Y9	Z9	X10	Y10	Z10	X11	Y11	Z11	X12	Y12	Z12	X13	Y13	Z13	X14	Y14	Z14	X15	Y15	Z15	X16	Y16	Z16	X17	Y17	Z17	X18	Y18	Z18	X19	Y19	Z19	X20	Y20	Z20	X21	Y21	Z21	X22	Y22	Z22	X23	Y23	Z23	X24	Y24	Z24	X25	Y25	Z25	X26	Y26	Z26	X27	Y27	Z27	X28	Y28	Z28	X29	Y29	Z29	X30	Y30	Z30	X31	Y31	Z31	X32	Y32	Z32	X33	Y33	Z33	X34	Y34	Z34	X35	Y35	Z35	X36	Y36	Z36	X37	Y37	Z37	X38	Y38	Z38	X39	Y39	Z39	X40	Y40	Z40	X41	Y41	Z41	X42	Y42	Z42	X43	Y43	Z43	X44	Y44	Z44	X45	Y45	Z45	X46	Y46	Z46	X47	Y47	Z47	X48	Y48	Z48	X49	Y49	Z49	X50	Y50	Z50	X51	Y51	Z51	X52	Y52	Z52	X53	Y53	Z53	

175	1.74	-1068.031616210938	951.5250244140625	-439.284423828125	-998.4598388671875	947.61572265625	-541.6427001953125	-1022.584594726562	1028.566650390625	-495.9689331054688	-814.6622314453125	1172.731811523438	-379.4103393554688	-1027.655395507812	1135.307495117188	-496.9971923828125	-970.7826538085938	1359.597412109375	-459.1890869140625	-840.7357788085938	1270.246215820312	-390.72265625	-1063.489013671875	1241.82373046875	-415.3518371582031	-953.2650756835938	1309.81982421875	-549.4908447265625	-831.6864013671875	1352.074462890625	-565.3923950195312	-814.73388671875	1229.201416015625	-631.9887084960938	-795.0553588867188	1019.582946777344	-659.3833618164062	-892.8617553710938	1011.838684082031	-642.70458984375	-747.9512329101562	824.8164672851562	-587.7899169921875	-783.2784423828125	934.3671264648438	-654.838134765625	-763.1738891601562	667.3146362304688	-587.8253173828125	-778.4442138671875	740.2311401367188	-651.0836181640625	-733.6842041015625	746.8231201171875	-604.1954345703125	-995.70068359375	1345.90185546875	-303.3839721679688	-1044.671997070312	1280.463500976562	-266.7054443359375	-1089.708740234375	1015.838317871094	-234.7481689453125	-1107.981079101562	999.6231079101562	-296.6543579101562	-992.7280883789062	819.0764770507812	-181.6167144775391	-1076.003784179688	792.5680541992188	-205.7151489257812	-1092.688232421875	960.992431640625	-225.9794006347656	-987.4159545898438	657.980224609375	-176.4646911621094	-996.6948852539062	724.9916381835938	-152.8396911621094	-1058.274780273438	720.1980590820312	-187.6809997558594	-989.3348388671875	1492.844848632812	-360.5341186523438	-819.48095703125	1584.242553710938	-415.8661499023438	-886.1741943359375	1567.81201171875	-308.3146057128906	-918.013916015625	1506.742797851562	-502.16552734375	-843.2041015625	864.4703979492188	-594.5526733398438	-1040.284057617188	863.6981201171875	-268.6289672851562	-924.043701171875	906.16357421875	-282.0926208496094	-797.4314575195312	898.1375122070312	-487.5576171875	-922.6713256835938	448.5416870117188	-562.2808227539062	-867.8458251953125	600.6498413085938	-565.9956665039062	-1098.943725585938	51.93988418579102	-618.5025634765625	-981.6197509765625	305.6717224121094	-585.1917114257812	-954.6897583007812	38.50233459472656	-472.0671997070312	-1039.29296875	43.22243118286133	-479.94677734375	-999.1470947265625	45.40333557128906	-574.0353393554688	-1170.37841796875	53.09456253051758	-587.407958984375	-903.5406494140625	499.9906616210938	-228.3770599365234	-993.1519165039062	743.8452758789062	-235.69580078125	-838.8953857421875	60.4470329284668	-196.2197570800781	-854.4566650390625	362.4994812011719	-204.3850555419922	-657.2800903320312	117.9365005493164	-135.8003082275391	-688.6069946289062	98.5565185546875	-200.6181640625	-754.073486328125	86.22826385498047	-128.4989318847656	-856.5751953125	39.70555877685547	-261.2155456542969	-794.7685546875	795.0249633789062	-663.9342651367188	
176	1.75	-1063.345581054688	950.2206420898438	-435.5936279296875	-993.8143920898438	946.1260375976562	-537.97705078125	-1017.994934082031	1027.329956054688	-492.423583984375	-810.1444702148438	1171.465698242188	-375.99462890625	-1023.072814941406	1134.041748046875	-493.431396484375	-966.3016967773438	1358.422729492188	-455.5262756347656	-836.2556762695312	1268.989379882812	-387.1737365722656	-1059.01806640625	1240.529418945312	-411.8007202148438	-948.7249145507812	1308.689331054688	-545.933349609375	-827.1717529296875	1351.034790039062	-561.7526245117188	-810.068115234375	1228.117797851562	-628.3031616210938	-790.2659301757812	1018.485900878906	-655.5781860351562	-888.0887451171875	1010.703796386719	-639.0318603515625	-743.3080444335938	823.640380859375	-583.97265625	-778.5316162109375	933.2314453125	-651.018310546875	-759.0001831054688	666.0923461914062	-584.666748046875	-773.7845458984375	739.1869506835938	-647.515380859375	-729.0701904296875	745.6883544921875	-600.5695190429688	-991.224365234375	1344.53515625	-299.7821350097656	-1040.196166992188	1279.082641601562	-263.0947875976562	-1085.20849609375	1014.45751953125	-231.0176239013672	-1103.57470703125	998.2848510742188	-292.9164733886719	-988.5354614257812	817.41943359375	-178.2249450683594	-1071.987548828125	791.1942138671875	-202.0921173095703	-1088.259399414062	959.6294555664062	-222.2596435546875	-983.7613525390625	656.3108520507812	-173.0733337402344	-992.7732543945312	723.364013671875	-149.4049987792969	-1054.451416015625	718.7678833007812	-184.1145324707031	-985.2380981445312	1491.176391601562	-356.74267578125	-815.79541015625	1583.313842773438	-412.1566772460938	-882.442626953125	1566.659301757812	-304.5769958496094	-913.97265625	1505.26708984375	-498.3915405273438	-838.8767700195312	863.1190795898438	-591.19775390625	-1035.36328125	862.6400756835938	-264.9059753417969	-919.0446166992188	905.144287109375	-278.5729370117188	-792.8451538085938	896.87744140625	-484.288330078125	-919.5559692382812	447.6917724609375	-559.466796875	-863.9622802734375	599.4820556640625	-562.5869750976562	-1098.641723632812	52.49160385131836	-618.4720458984375	-979.6292114257812	305.2972412109375	-583.2835083007812	-954.6076049804688	38.31538772583008	-472.0008850097656	-1039.216552734375	43.2429313659668	-479.9129943847656	-998.9971313476562	45.35138702392578	-574.0028076171875	-1170.109130859375	54.19363784790039	-587.4786376953125	-898.6412963867188	499.0506286621094	-224.3492126464844	-988.5505981445312	742.7260131835938	-231.594482421875	-832.0382690429688	59.89742660522461	-191.0864868164062	-848.9061889648438	361.8303527832031	-200.1372985839844	-650.387451171875	117.8433303833008	-131.0494995117188	-681.8926391601562	98.29463958740234	-195.7473907470703	-747.2132568359375	86.08284759521484	-123.527946472168	-849.796875	38.94618988037109	-255.9986114501953	-790.0975341796875	793.97509765625	-660.2468872070312	
177	1.76	-1058.5810546875	948.933837890625	-431.7651062011719	-989.1307373046875	944.663818359375	-534.1563720703125	-1013.318969726562	1026.09619140625	-488.7255554199219	-805.5321044921875	1170.24267578125	-372.4567260742188	-1018.395202636719	1132.782104492188	-489.75	-961.7579956054688	1357.265991210938	-451.7613525390625	-831.6875610351562	1267.772216796875	-383.51416015625	-1054.470703125	1239.237670898438	-408.1298522949219	-944.1224975585938	1307.570190429688	-542.2763671875	-822.6050415039062	1350.022094726562	-558.0104370117188	-805.314697265625	1227.068359375	-624.5098266601562	-785.3819580078125	1017.416320800781	-651.6419677734375	-883.2296752929688	1009.602783203125	-635.2327270507812	-738.6192016601562	822.4779052734375	-580.0050048828125	-773.7017822265625	932.1219482421875	-647.0650024414062	-754.7328491210938	664.8749389648438	-581.2919921875	-769.0606689453125	738.157958984375	-643.7803955078125	-724.4119873046875	744.5665893554688	-596.7638549804688	-986.6808471679688	1343.193115234375	-296.0655822753906	-1035.641235351562	1277.718994140625	-259.3663024902344	-1080.57177734375	1013.0810546875	-227.2037963867188	-1099.033203125	996.959228515625	-289.1039123535156	-984.2421264648438	815.7213745117188	-174.7775268554688	-1067.874755859375	789.8137817382812	-198.4369964599609	-1083.694946289062	958.2710571289062	-218.4622344970703	-980.0482788085938	654.6005249023438	-169.6898040771484	-988.774658203125	721.6903686523438	-145.9564819335938	-1050.555541992188	717.31787109375	-180.529296875	-981.0623168945312	1489.562133789062	-352.8586120605469	-812.0234985351562	1582.39453125	-408.3590087890625	-878.62158203125	1565.537109375	-300.7503051757812	-909.8583374023438	1503.829711914062	-494.5285949707031	-834.434814453125	861.7630615234375	-587.6514282226562	-1030.307006835938	861.565185546875	-260.9902038574219	-913.9945068359375	904.158935546875	-274.8948364257812	-788.1489868164062	895.6322021484375	-480.8342590332031	-916.3424682617188	446.8639221191406	-556.51708984375	-859.937744140625	598.327392578125	-559.0294189453125	-1098.298095703125	53.18936538696289	-618.4496459960938	-977.5361328125	304.9786682128906	-581.319091796875	-954.5446166992188	38.15771102905273	-471.936767578125	-1039.132568359375	43.28569793701172	-479.8878173828125	-998.8193969726562	45.30281829833984	-573.9774780273438	-1169.789184570312	55.47521591186523	-587.5775146484375	-893.5549926757812	498.1612243652344	-220.269775390625	-983.8104248046875	741.6644897460938	-227.3654022216797	-825.855224609375	59.20586395263672	-186.5336456298828	-843.3784790039062	361.0882568359375	-195.9829711914062	-644.1055908203125	117.1829223632812	-126.6885223388672	-675.7874755859375	97.60844421386719	-191.3189086914062	-741.029541015625	85.55794525146484	-119.0248565673828	-843.7489624023438	38.19733047485352	-251.3479919433594	-785.34912109375	792.9417724609375	-656.4127197265625	
178	1.77	-1053.730102539062	947.6749877929688	-427.7860412597656	-984.4141845703125	943.2601928710938	-530.1838989257812	-1008.548767089844	1024.871215820312	-484.869873046875	-800.822509765625	1169.076416015625	-368.7841186523438	-1013.625427246094	1131.534057617188	-485.9547119140625	-957.15771484375	1356.128662109375	-447.8981018066406	-827.0336303710938	1266.604858398438	-379.7381896972656	-1049.844970703125	1237.95166015625	-404.3358764648438	-939.461669921875	1306.4599609375	-538.512939453125	-817.99267578125	1349.035278320312	-554.1655883789062	-800.4841918945312	1226.052368164062	-620.60791015625	-780.40771484375	1016.374145507812	-647.5797119140625	-878.2875366210938	1008.533996582031	-631.3121337890625	-733.8865356445312	821.3350830078125	-575.8915405273438	-768.7879638671875	931.0419311523438	-642.9857788085938	-750.3142700195312	663.6775512695312	-577.6624145507812	-764.2645263671875	737.14453125	-639.8729248046875	-719.6968994140625	743.463623046875	-592.7726440429688	-982.0777587890625	1341.884033203125	-292.2346801757812	-1031.011352539062	1276.379516601562	-255.5209045410156	-1075.800048828125	1011.714233398438	-223.3161926269531	-1094.35986328125	995.65283203125	-285.2218933105469	-979.8464965820312	813.9943237304688	-171.2821655273438	-1063.662841796875	788.4352416992188	-194.7503662109375	-1078.98974609375	956.9213256835938	-214.5996398925781	-976.2742309570312	652.8629760742188	-166.3113708496094	-984.6909790039062	719.9842529296875	-142.4976959228516	-1046.582763671875	715.8601684570312	-176.9230041503906	-976.81103515625	1488.014282226562	-348.8857421875	-808.1643676757812	1581.4873046875	-404.475830078125	-874.7066040039062	1564.450805664062	-296.8381958007812	-905.6724853515625	1502.443481445312	-490.5803527832031	-829.8560180664062	860.4188842773438	-583.894775390625	-1025.110595703125	860.4684448242188	-256.8790588378906	-908.8924560546875	903.2019653320312	-271.0451354980469	-783.3281860351562	894.4116821289062	-477.1803588867188	-913.047607421875	446.0806274414062	-553.4581909179688	-855.7739868164062	597.2080688476562	-555.3408813476562	-1097.906982421875	54.04320907592773	-618.4458618164062	-975.3367919921875	304.7350158691406	-579.3130493164062	-954.5000610351562	38.03126907348633	-471.8775634765625	-1039.037963867188	43.35552597045898	-479.8749084472656	-998.6098022460938	45.25956726074219	-573.9609985351562	-1169.412475585938	56.94420623779297	-587.7073974609375	-888.2747802734375	497.3155212402344	-216.1503753662109	-978.9116821289062	740.6605224609375	-223.0175628662109	-820.3621826171875	58.35844802856445	-182.5884246826172	-837.8734130859375	360.2625122070312	-191.943115234375	-638.4358520507812	115.93115234375	-122.7730026245117	-670.30078125	96.47549438476562	-187.3867645263672	-735.5171508789062	84.62616729736328	-115.0333099365234	-838.4442138671875	37.44393157958984	-247.3029479980469	-780.5189208984375	791.9247436523438	-652.4336547851562	
